<svg width="297" height="105" viewBox="0 0 297 105" fill="none" xmlns="http://www.w3.org/2000/svg">
<path d="M28.992 46.632L30.976 86.696L27.456 87.528L23.168 74.728L11.52 75.88L8.832 86.696L6.144 86.376L3.456 45.48L28.992 46.632ZM11.52 68.072L22.016 68.52L18.496 53.928L14.528 54.312L11.52 68.072ZM39.786 87.208L38.57 63.592L32.298 64.04L31.914 57.768H37.93L37.162 46.504L44.394 46.952V57.576L53.098 58.216L53.226 61.672L44.522 63.208L44.714 87.144L39.786 87.208ZM62.2025 88.488L57.6585 59.944L65.7225 59.112L65.9145 61.48L79.8665 60.904L80.4425 65.64L66.2985 68.52L67.3225 87.976L62.2025 88.488ZM110.229 82.6L110.421 82.664L110.101 86.696L106.325 86.568L84.1805 87.144L83.9245 69.672L100.053 70.76V65.448L88.9805 65.896L88.6605 61.544L104.725 58.536L107.285 81.448L110.229 82.6ZM100.053 75.56H89.2365L90.1325 82.472L99.6045 82.792L100.053 75.56ZM132.763 86.248L132.443 91.304L127.835 91.752L126.683 87.208L119.451 88.296L115.803 59.176L139.163 60.968L138.971 65.448L122.459 65.768L124.763 81.896L139.291 81L139.675 85.224L132.763 86.248ZM169.907 61.288L167.347 88.104L147.443 87.4V87.336L144.691 61.288H169.907ZM164.403 67.752L150.323 66.792L152.755 82.216L162.163 83.432L164.403 67.752ZM150.963 50.792L163.059 50.6L169.139 46.504L170.995 52.648L164.275 57L150.451 54.952L150.963 50.792ZM178.995 88.104L176.371 61.16L200.883 60.392L200.691 77.8L184.179 77.416L184.115 82.856L197.107 83.304L197.427 86.376L178.995 88.104ZM184.563 72.936L194.867 72.488L193.779 65.64L184.883 65.384L184.563 72.936ZM212.218 72.296L228.73 70.248L230.266 86.44L207.802 87.912L207.61 83.624L223.418 81L223.29 76.968L207.034 78.312L205.434 61.224L224.378 60.648V64.872L210.81 66.92L212.218 72.296Z" fill="black"/>
<path d="M249.988 45.3323L216.705 35.9936L217.888 28.0711L264.748 24.3639L276.206 68.3849L266.964 74.4234L249.988 45.3323ZM265.542 55.6295L265.769 58.6147L262.717 58.6114L261.999 59.5729L265.524 60.708L263.408 63.1412L264.369 63.8592L266.65 62.088L266.936 65.4762L268.155 65.3681L268.31 61.4702L272.025 61.5488L272.003 60.2145L269.141 59.6348L270.97 57.5862L270.076 56.6185L267.718 58.5722L266.963 55.4922L265.542 55.6295ZM253.156 31.2233L251.429 31.8509L252.521 35.3622L248.702 36.2245L248.58 37.7512L252.661 37.9827L251.372 41.3934L252.603 42.3124L254.699 39.5049L256.041 43.0829L257.653 42.6091L256.702 37.9455L261.365 36.755L260.768 35.4698L256.89 35.6891L258.659 32.5174L257.073 31.7527L254.862 34.7141L253.156 31.2233ZM226.579 29.349L225.832 30.349L227.334 32.429L225.13 34.2576L225.237 35.2366L228.297 34.107L228.332 36.9486L229.389 37.1384L230.142 34.5256L232.018 36.5857L232.977 36.1037L231.012 32.959L233.715 31.0237L233.08 30.1899L230.596 31.5102L230.677 28.7549L229.659 28.5938L228.781 31.2932L226.579 29.349ZM254.283 56.2674L261.296 67.9744L259.286 70.6666L223.476 42.2483L224.739 40.0761L238.687 44.5014L254.283 56.2674ZM233.973 48.8888L236.705 46.9152L233.32 44.3878L231.819 47.2805L233.973 48.8888ZM247.626 54.1116L243.454 51.5955L242.299 54.7467L244.991 56.5171L247.626 54.1116ZM255.197 62.1023L252.272 58.9596L250.424 61.1138L252.253 63.318L255.197 62.1023ZM208.484 39.1403L216.13 36.7628L217.133 38.7095L208.986 40.4737L208.484 39.1403ZM214.816 32.6663L215.282 34.9309L207.674 37.3372L206.979 35.6202L214.816 32.6663ZM270.45 74.8097L269.872 83.1246L268.259 83.1183L268.233 75.3712L270.45 74.8097ZM264.037 75.0535L266.246 75.3849L266.196 83.5546L264.391 83.4048L264.037 75.0535Z" fill="black"/>
</svg>
