<svg width="439" height="105" viewBox="0 0 439 105" fill="none" xmlns="http://www.w3.org/2000/svg">
<path d="M3.328 45.48H34.304L29.952 85.608L7.296 87.208L3.328 45.48ZM14.08 79.656L24.832 78.056L27.584 53.608L10.496 54.888L14.08 79.656ZM46.0775 88.488L41.5335 59.944L49.5975 59.112L49.7895 61.48L63.7415 60.904L64.3175 65.64L50.1735 68.52L51.1975 87.976L46.0775 88.488ZM71.5965 86.824L68.0765 59.624L93.7405 61.288L92.6525 96.936L73.1325 97.32L72.8125 93.096L86.7645 91.752L87.6605 87.08L71.5965 86.824ZM87.4045 66.984L74.4125 66.6L77.1645 80.936L86.8925 81.064L87.4045 66.984ZM126.166 82.6L126.358 82.664L126.038 86.696L122.262 86.568L100.118 87.144L99.862 69.672L115.99 70.76V65.448L104.918 65.896L104.598 61.544L120.662 58.536L123.222 81.448L126.166 82.6ZM115.99 75.56H105.174L106.07 82.472L115.542 82.792L115.99 75.56ZM134.301 88.168L129.885 59.944L137.245 58.984L137.629 62.568L157.085 60.904L155.293 88.168L150.365 87.976L150.173 67.624L138.205 69.416L138.845 87.72L134.301 88.168ZM170.859 61.928L170.411 88.168L163.947 87.912L166.763 61.864L170.859 61.928ZM171.755 58.6H166.507L166.187 52.456L172.267 52.84L171.755 58.6ZM191.901 65.64L180.061 64.232L180.253 59.752L199.645 59.88L201.181 66.28L186.717 80.744L200.797 81.256V86.248L178.397 87.336L178.781 81.448L191.901 65.64ZM232.041 82.6L232.233 82.664L231.913 86.696L228.137 86.568L205.993 87.144L205.737 69.672L221.865 70.76V65.448L210.793 65.896L210.473 61.544L226.537 58.536L229.097 81.448L232.041 82.6ZM221.865 75.56H211.049L211.945 82.472L221.417 82.792L221.865 75.56ZM254.378 61.352L254.954 45.288H259.242L260.01 86.312L238.634 87.592L234.538 61.544L254.378 61.352ZM253.802 67.496H241.77L242.922 81.896L253.994 80.68L253.802 67.496ZM290.008 61.288L287.448 88.104L267.544 87.4V87.336L264.792 61.288H290.008ZM284.504 67.752L270.424 66.792L272.856 82.216L282.264 83.432L284.504 67.752ZM301.015 88.488L296.471 59.944L304.535 59.112L304.727 61.48L318.679 60.904L319.255 65.64L305.111 68.52L306.135 87.976L301.015 88.488ZM324.87 88.104L322.246 61.16L346.758 60.392L346.566 77.8L330.054 77.416L329.99 82.856L342.982 83.304L343.302 86.376L324.87 88.104ZM330.438 72.936L340.742 72.488L339.654 65.64L330.758 65.384L330.438 72.936ZM358.093 72.296L374.605 70.248L376.141 86.44L353.677 87.912L353.485 83.624L369.293 81L369.165 76.968L352.909 78.312L351.309 61.224L370.253 60.648V64.872L356.685 66.92L358.093 72.296Z" fill="black"/>
<path d="M391.988 45.3323L358.705 35.9936L359.888 28.0711L406.748 24.3639L418.206 68.3849L408.964 74.4234L391.988 45.3323ZM407.542 55.6295L407.769 58.6147L404.717 58.6114L403.999 59.5729L407.524 60.708L405.408 63.1412L406.369 63.8592L408.65 62.088L408.936 65.4762L410.155 65.3681L410.31 61.4702L414.025 61.5488L414.003 60.2145L411.141 59.6348L412.97 57.5862L412.076 56.6185L409.718 58.5722L408.963 55.4922L407.542 55.6295ZM395.156 31.2233L393.429 31.8509L394.521 35.3622L390.702 36.2245L390.58 37.7512L394.661 37.9827L393.372 41.3934L394.603 42.3124L396.699 39.5049L398.041 43.0829L399.653 42.6091L398.702 37.9455L403.365 36.755L402.768 35.4698L398.89 35.6891L400.659 32.5174L399.073 31.7527L396.862 34.7141L395.156 31.2233ZM368.579 29.349L367.832 30.349L369.334 32.429L367.13 34.2576L367.237 35.2366L370.297 34.107L370.332 36.9486L371.389 37.1384L372.142 34.5256L374.018 36.5857L374.977 36.1037L373.012 32.959L375.715 31.0237L375.08 30.1899L372.596 31.5102L372.677 28.7549L371.659 28.5938L370.781 31.2932L368.579 29.349ZM396.283 56.2674L403.296 67.9744L401.286 70.6666L365.476 42.2483L366.739 40.0761L380.687 44.5014L396.283 56.2674ZM375.973 48.8888L378.705 46.9152L375.32 44.3878L373.819 47.2805L375.973 48.8888ZM389.626 54.1116L385.454 51.5955L384.299 54.7467L386.991 56.5171L389.626 54.1116ZM397.197 62.1023L394.272 58.9596L392.424 61.1138L394.253 63.318L397.197 62.1023ZM350.484 39.1403L358.13 36.7628L359.133 38.7095L350.986 40.4737L350.484 39.1403ZM356.816 32.6663L357.282 34.9309L349.674 37.3372L348.979 35.6202L356.816 32.6663ZM412.45 74.8097L411.872 83.1246L410.259 83.1183L410.233 75.3712L412.45 74.8097ZM406.037 75.0535L408.246 75.3849L408.196 83.5546L406.391 83.4048L406.037 75.0535Z" fill="black"/>
</svg>
