<svg width="606" height="105" viewBox="0 0 606 105" fill="none" xmlns="http://www.w3.org/2000/svg">
<path d="M26.816 51.496L12.608 52.456L11.072 63.4L26.816 64.552V68.968L12.352 70.888L13.76 80.744L27.328 81.064L27.648 85.928L5.952 87.528L3.52 45.48L27.776 45.928L26.816 51.496ZM35.736 86.76L40.28 60.776L61.592 62.44L60.12 103.4L55.832 103.336L55.576 87.272L35.736 86.76ZM55.512 67.944L44.44 66.536L43.032 80.936L55.064 81.128L55.512 67.944ZM89.7815 61.8L91.7655 86.184L68.2135 88.104L70.1975 60.264L74.5495 60.52L75.1255 82.088L84.7895 81L85.1095 62.056L89.7815 61.8ZM102.859 61.928L102.411 88.168L95.947 87.912L98.763 61.864L102.859 61.928ZM103.755 58.6H98.507L98.187 52.456L104.267 52.84L103.755 58.6ZM117.16 86.952L116.904 103.016L112.616 103.08L111.144 62.12L137.896 61.672L133.544 86.504L117.16 86.952ZM117.672 80.808L127.976 81.064L131.048 68.328L117.288 69.032L117.672 80.808ZM141.433 88.104L138.809 61.16L163.321 60.392L163.129 77.8L146.617 77.416L146.553 82.856L159.545 83.304L159.865 86.376L141.433 88.104ZM147.001 72.936L157.305 72.488L156.217 65.64L147.321 65.384L147.001 72.936ZM185.462 45.48L216.054 48.488L204.854 74.984L194.806 74.216L191.094 87.272L187.702 86.952L185.462 45.48ZM201.526 66.92L205.942 55.592H192.118L194.102 66.408L201.526 66.92ZM215.62 88.104L212.996 61.16L237.508 60.392L237.316 77.8L220.804 77.416L220.74 82.856L233.732 83.304L234.052 86.376L215.62 88.104ZM221.188 72.936L231.492 72.488L230.404 65.64L221.508 65.384L221.188 72.936ZM247.328 88.488L242.784 59.944L250.848 59.112L251.04 61.48L264.992 60.904L265.568 65.64L251.424 68.52L252.448 87.976L247.328 88.488ZM273.551 88.168L269.135 59.944L276.495 58.984L276.879 62.568L296.335 60.904L294.543 88.168L289.615 87.976L289.423 67.624L277.455 69.416L278.095 87.72L273.551 88.168ZM328.541 82.6L328.733 82.664L328.413 86.696L324.637 86.568L302.493 87.144L302.237 69.672L318.365 70.76V65.448L307.293 65.896L306.973 61.544L323.037 58.536L325.597 81.448L328.541 82.6ZM318.365 75.56H307.549L308.445 82.472L317.917 82.792L318.365 75.56ZM355.236 63.08L370.916 61.544L368.996 87.592L363.62 87.4L363.748 67.88L354.66 69.992L353.508 87.592L348.708 87.4L348.516 67.88L339.236 70.312L339.876 87.144L335.46 87.592L331.044 60.328L338.276 59.304L338.532 62.632L355.172 60.456L355.236 63.08ZM382.2 62.632L401.912 61.032L400.184 87.336L378.744 87.912L375.736 46.952L380.024 46.568L382.2 62.632ZM384.184 81.832L395.256 82.088L395.128 67.56L383.095 68.776L384.184 81.832ZM428.407 61.8L430.391 86.184L406.839 88.104L408.823 60.264L413.175 60.52L413.751 82.088L423.415 81L423.735 62.056L428.407 61.8ZM457.612 85.992L437.388 89.064L433.74 59.944L457.1 61.736L456.908 66.216L440.396 66.536L442.7 82.664L457.228 81.768L457.612 85.992ZM489.238 82.6L489.43 82.664L489.11 86.696L485.334 86.568L463.19 87.144L462.934 69.672L479.062 70.76V65.448L467.99 65.896L467.67 61.544L483.734 58.536L486.294 81.448L489.238 82.6ZM479.062 75.56H468.246L469.142 82.472L478.614 82.792L479.062 75.56ZM480.406 47.208L488.214 50.92L476.054 55.976L473.75 53.8L480.406 47.208ZM499.249 47.144L502.257 87.208L495.665 87.784L495.153 47.464L499.249 47.144ZM516.172 61.928L515.724 88.168L509.26 87.912L512.076 61.864L516.172 61.928ZM517.068 58.6H511.82L511.5 52.456L517.58 52.84L517.068 58.6ZM545.916 82.6L546.108 82.664L545.788 86.696L542.012 86.568L519.868 87.144L519.612 69.672L535.74 70.76V65.448L524.668 65.896L524.348 61.544L540.412 58.536L542.972 81.448L545.916 82.6ZM535.74 75.56H524.924L525.82 82.472L535.292 82.792L535.74 75.56Z" fill="black"/>
<path d="M558.988 45.3323L525.705 35.9936L526.888 28.0711L573.748 24.3639L585.206 68.3849L575.964 74.4234L558.988 45.3323ZM574.542 55.6295L574.769 58.6147L571.717 58.6114L570.999 59.5729L574.524 60.708L572.408 63.1412L573.369 63.8592L575.65 62.088L575.936 65.4762L577.155 65.3681L577.31 61.4702L581.025 61.5488L581.003 60.2145L578.141 59.6348L579.97 57.5862L579.076 56.6185L576.718 58.5722L575.963 55.4922L574.542 55.6295ZM562.156 31.2233L560.429 31.8509L561.521 35.3622L557.702 36.2245L557.58 37.7512L561.661 37.9827L560.372 41.3934L561.603 42.3124L563.699 39.5049L565.041 43.0829L566.653 42.6091L565.702 37.9455L570.365 36.755L569.768 35.4698L565.89 35.6891L567.659 32.5174L566.073 31.7527L563.862 34.7141L562.156 31.2233ZM535.579 29.349L534.832 30.349L536.334 32.429L534.13 34.2576L534.237 35.2366L537.297 34.107L537.332 36.9486L538.389 37.1384L539.142 34.5256L541.018 36.5857L541.977 36.1037L540.012 32.959L542.715 31.0237L542.08 30.1899L539.596 31.5102L539.677 28.7549L538.659 28.5938L537.781 31.2932L535.579 29.349ZM563.283 56.2674L570.296 67.9744L568.286 70.6666L532.476 42.2483L533.739 40.0761L547.687 44.5014L563.283 56.2674ZM542.973 48.8888L545.705 46.9152L542.32 44.3878L540.819 47.2805L542.973 48.8888ZM556.626 54.1116L552.454 51.5955L551.299 54.7467L553.991 56.5171L556.626 54.1116ZM564.197 62.1023L561.272 58.9596L559.424 61.1138L561.253 63.318L564.197 62.1023ZM517.484 39.1403L525.13 36.7628L526.133 38.7095L517.986 40.4737L517.484 39.1403ZM523.816 32.6663L524.282 34.9309L516.674 37.3372L515.979 35.6202L523.816 32.6663ZM579.45 74.8097L578.872 83.1246L577.259 83.1183L577.233 75.3712L579.45 74.8097ZM573.037 75.0535L575.246 75.3849L575.196 83.5546L573.391 83.4048L573.037 75.0535Z" fill="black"/>
</svg>
