<svg width="246" height="58" viewBox="0 0 246 58" fill="none" xmlns="http://www.w3.org/2000/svg">
<path d="M1.82 25.2H18.76L16.38 47.145L3.99 48.02L1.82 25.2ZM7.7 43.89L13.58 43.015L15.085 29.645L5.74 30.345L7.7 43.89ZM25.1986 48.72L22.7136 33.11L27.1236 32.655L27.2286 33.95L34.8586 33.635L35.1736 36.225L27.4386 37.8L27.9986 48.44L25.1986 48.72ZM39.1543 47.81L37.2293 32.935L51.2643 33.845L50.6693 53.34L39.9943 53.55L39.8193 51.24L47.4493 50.505L47.9393 47.95L39.1543 47.81ZM47.7993 36.96L40.6943 36.75L42.1993 44.59L47.5193 44.66L47.7993 36.96ZM68.997 45.5L69.102 45.535L68.927 47.74L66.862 47.67L54.752 47.985L54.612 38.43L63.432 39.025V36.12L57.377 36.365L57.202 33.985L65.987 32.34L67.387 44.87L68.997 45.5ZM63.432 41.65H57.517L58.007 45.43L63.187 45.605L63.432 41.65ZM73.4456 48.545L71.0306 33.11L75.0556 32.585L75.2656 34.545L85.9056 33.635L84.9256 48.545L82.2306 48.44L82.1256 37.31L75.5806 38.29L75.9306 48.3L73.4456 48.545ZM93.4385 34.195L93.1935 48.545L89.6585 48.405L91.1985 34.16L93.4385 34.195ZM93.9285 32.375H91.0585L90.8835 29.015L94.2085 29.225L93.9285 32.375ZM104.946 36.225L98.4706 35.455L98.5756 33.005L109.181 33.075L110.021 36.575L102.111 44.485L109.811 44.765V47.495L97.5606 48.09L97.7706 44.87L104.946 36.225ZM126.897 45.5L127.002 45.535L126.827 47.74L124.762 47.67L112.652 47.985L112.512 38.43L121.332 39.025V36.12L115.277 36.365L115.102 33.985L123.887 32.34L125.287 44.87L126.897 45.5ZM121.332 41.65H115.417L115.907 45.43L121.087 45.605L121.332 41.65ZM139.113 33.88L139.428 25.095H141.773L142.193 47.53L130.503 48.23L128.263 33.985L139.113 33.88ZM138.798 37.24H132.218L132.848 45.115L138.903 44.45L138.798 37.24ZM158.598 33.845L157.198 48.51L146.313 48.125V48.09L144.808 33.845H158.598ZM155.588 37.38L147.888 36.855L149.218 45.29L154.363 45.955L155.588 37.38ZM164.618 48.72L162.133 33.11L166.543 32.655L166.648 33.95L174.278 33.635L174.593 36.225L166.858 37.8L167.418 48.44L164.618 48.72ZM177.663 48.51L176.228 33.775L189.633 33.355L189.528 42.875L180.498 42.665L180.463 45.64L187.568 45.885L187.743 47.565L177.663 48.51ZM180.708 40.215L186.343 39.97L185.748 36.225L180.883 36.085L180.708 40.215ZM195.832 39.865L204.862 38.745L205.702 47.6L193.417 48.405L193.312 46.06L201.957 44.625L201.887 42.42L192.997 43.155L192.122 33.81L202.482 33.495V35.805L195.062 36.925L195.832 39.865Z" fill="black"/>
<path d="M221.365 23.2484L204.03 18.3845L204.646 14.2582L229.052 12.3273L235.02 35.255L230.206 38.4L221.365 23.2484ZM229.466 28.6115L229.584 30.1663L227.994 30.1646L227.62 30.6654L229.457 31.2565L228.354 32.5238L228.855 32.8978L230.043 31.9753L230.192 33.74L230.827 33.6837L230.907 31.6535L232.842 31.6945L232.831 30.9995L231.34 30.6976L232.293 29.6306L231.827 29.1266L230.599 30.1442L230.206 28.54L229.466 28.6115ZM223.015 15.8999L222.115 16.2268L222.684 18.0556L220.695 18.5048L220.632 19.2999L222.757 19.4205L222.086 21.1969L222.727 21.6755L223.819 20.2133L224.517 22.0768L225.357 21.8301L224.862 19.4011L227.291 18.781L226.979 18.1117L224.959 18.2259L225.881 16.574L225.055 16.1757L223.903 17.7181L223.015 15.8999ZM209.172 14.9237L208.784 15.4446L209.566 16.5279L208.418 17.4803L208.474 17.9902L210.068 17.4019L210.086 18.8819L210.636 18.9807L211.028 17.6199L212.005 18.6929L212.505 18.4418L211.481 16.8039L212.889 15.796L212.558 15.3617L211.265 16.0494L211.307 14.6143L210.777 14.5304L210.32 15.9364L209.172 14.9237ZM223.602 28.9437L227.254 35.0411L226.207 36.4433L207.556 21.6421L208.214 20.5108L215.479 22.8156L223.602 28.9437ZM213.024 25.1008L214.447 24.0728L212.684 22.7565L211.902 24.2631L213.024 25.1008ZM220.134 27.821L217.962 26.5105L217.36 28.1517L218.762 29.0738L220.134 27.821ZM224.078 31.9827L222.555 30.3459L221.592 31.4679L222.544 32.6159L224.078 31.9827ZM199.748 20.0234L203.731 18.7851L204.253 19.799L200.01 20.7178L199.748 20.0234ZM203.046 16.6515L203.289 17.831L199.326 19.0843L198.964 18.19L203.046 16.6515ZM232.022 38.6012L231.721 42.9319L230.881 42.9286L230.867 38.8936L232.022 38.6012ZM228.682 38.7282L229.832 38.9008L229.806 43.1558L228.866 43.0778L228.682 38.7282Z" fill="black"/>
</svg>
