<svg width="126" height="58" viewBox="0 0 126 58" fill="none" xmlns="http://www.w3.org/2000/svg">
<path d="M14.665 28.49L6.895 29.015L6.055 35L14.665 35.63V38.045L6.755 39.095L7.525 44.485L14.945 44.66L15.12 47.32L3.255 48.195L1.925 25.2L15.19 25.445L14.665 28.49ZM19.5431 47.775L22.0281 33.565L33.6831 34.475L32.8781 56.875L30.5331 56.84L30.3931 48.055L19.5431 47.775ZM30.3581 37.485L24.3031 36.715L23.5331 44.59L30.1131 44.695L30.3581 37.485ZM49.0993 34.125L50.1843 47.46L37.3043 48.51L38.3893 33.285L40.7693 33.425L41.0843 45.22L46.3693 44.625L46.5443 34.265L49.0993 34.125ZM56.251 34.195L56.006 48.545L52.471 48.405L54.011 34.16L56.251 34.195ZM56.741 32.375H53.871L53.696 29.015L57.021 29.225L56.741 32.375ZM64.0716 47.88L63.9316 56.665L61.5866 56.7L60.7816 34.3L75.4116 34.055L73.0316 47.635L64.0716 47.88ZM64.3516 44.52L69.9866 44.66L71.6666 37.695L64.1416 38.08L64.3516 44.52ZM77.3459 48.51L75.9109 33.775L89.3159 33.355L89.2109 42.875L80.1809 42.665L80.1459 45.64L87.2509 45.885L87.4259 47.565L77.3459 48.51ZM80.3909 40.215L86.0259 39.97L85.4309 36.225L80.5659 36.085L80.3909 40.215Z" fill="black"/>
<path d="M101.365 23.2484L84.0297 18.3845L84.6461 14.2582L109.052 12.3273L115.02 35.255L110.206 38.4L101.365 23.2484ZM109.466 28.6115L109.584 30.1663L107.994 30.1646L107.62 30.6654L109.457 31.2565L108.354 32.5238L108.855 32.8978L110.043 31.9753L110.192 33.74L110.827 33.6837L110.907 31.6535L112.842 31.6945L112.831 30.9995L111.34 30.6976L112.293 29.6306L111.827 29.1266L110.599 30.1442L110.206 28.54L109.466 28.6115ZM103.015 15.8999L102.115 16.2268L102.684 18.0556L100.695 18.5048L100.632 19.2999L102.757 19.4205L102.086 21.1969L102.727 21.6755L103.819 20.2133L104.517 22.0768L105.357 21.8301L104.862 19.4011L107.291 18.781L106.979 18.1117L104.959 18.2259L105.881 16.574L105.055 16.1757L103.903 17.7181L103.015 15.8999ZM89.1725 14.9237L88.7836 15.4446L89.5658 16.5279L88.4178 17.4803L88.4739 17.9902L90.0677 17.4019L90.0857 18.8819L90.6359 18.9807L91.0281 17.6199L92.0053 18.6929L92.5048 18.4418L91.4814 16.8039L92.8893 15.796L92.5584 15.3617L91.2648 16.0494L91.3068 14.6143L90.7767 14.5304L90.3196 15.9364L89.1725 14.9237ZM103.602 28.9437L107.254 35.0411L106.207 36.4433L87.5565 21.6421L88.2141 20.5108L95.4789 22.8156L103.602 28.9437ZM93.0237 25.1008L94.4466 24.0728L92.6838 22.7565L91.9019 24.2631L93.0237 25.1008ZM100.134 27.821L97.9616 26.5105L97.3601 28.1517L98.762 29.0738L100.134 27.821ZM104.078 31.9827L102.555 30.3459L101.592 31.4679L102.544 32.6159L104.078 31.9827ZM79.7481 20.0234L83.7305 18.7851L84.2526 19.799L80.0095 20.7178L79.7481 20.0234ZM83.0461 16.6515L83.2885 17.831L79.3261 19.0843L78.9643 18.19L83.0461 16.6515ZM112.022 38.6012L111.721 42.9319L110.881 42.9286L110.867 38.8936L112.022 38.6012ZM108.682 38.7282L109.832 38.9008L109.806 43.1558L108.866 43.0778L108.682 38.7282Z" fill="black"/>
</svg>
